<svg width="12" height="22" viewBox="0 0 12 22" fill="none" xmlns="http://www.w3.org/2000/svg">
<path d="M8.66 0C7.20982 0 5.81903 0.576083 4.7936 1.60152C3.76817 2.62695 3.19208 4.01774 3.19208 5.46792V8.51222H0.266007C0.119095 8.51222 0 8.63132 0 8.77823V12.7979C0 12.9448 0.119095 13.0639 0.266007 13.0639H3.19208V21.3101C3.19208 21.457 3.31118 21.5761 3.45809 21.5761H7.47775C7.62466 21.5761 7.74376 21.457 7.74376 21.3101V13.0639H10.6958C10.8178 13.0639 10.9242 12.9808 10.9538 12.8624L11.9587 8.84274C12.0007 8.67486 11.8737 8.51222 11.7007 8.51222H7.74376V5.46792C7.74376 5.22492 7.84029 4.99187 8.01212 4.82004C8.18395 4.64821 8.417 4.55167 8.66 4.55167H11.7339C11.8808 4.55167 11.9999 4.43258 11.9999 4.28567V0.266007C11.9999 0.119095 11.8808 0 11.7339 0H8.66Z" fill="#E6D8BA"/>
</svg>
