<svg width="22" height="22" viewBox="0 0 22 22" fill="none" xmlns="http://www.w3.org/2000/svg">
<path fill-rule="evenodd" clip-rule="evenodd" d="M0 10.7179C0 4.79859 4.79859 0 10.7179 0C16.6373 0 21.4359 4.79859 21.4359 10.7179C21.4359 16.6373 16.6373 21.4359 10.7179 21.4359C9.54277 21.4359 8.41073 21.2466 7.35131 20.8963L4.1271 21.9711C3.95508 22.0284 3.76598 21.9995 3.61888 21.8935C3.47178 21.7875 3.38462 21.6172 3.38462 21.4359V18.5344C1.30209 16.5798 0 13.8006 0 10.7179ZM13.8506 13.0169L16.8404 8.59491C17.1363 8.15935 16.5751 7.68591 16.1465 7.99838L12.922 10.2709C12.8161 10.3447 12.6872 10.3845 12.5547 10.3845C12.4222 10.3845 12.2933 10.3447 12.1873 10.2709L9.79958 8.60438C9.08529 8.112 8.06488 8.29191 7.58529 8.98314L4.59549 13.4051C4.29958 13.8407 4.8608 14.3141 5.28937 14.0016L8.51387 11.7291C8.61984 11.6553 8.74874 11.6155 8.88121 11.6155C9.01368 11.6155 9.14258 11.6553 9.24856 11.7291L11.6363 13.3672C12.3506 13.888 13.371 13.7081 13.8506 13.0169Z" fill="#E6D8BA"/>
</svg>
