<svg width="22" height="24" viewBox="0 0 22 24" fill="none" xmlns="http://www.w3.org/2000/svg">
<path fill-rule="evenodd" clip-rule="evenodd" d="M16.5913 0.617303C12.9091 -0.205767 9.09067 -0.205768 5.40851 0.617303L5.01173 0.705995C2.89949 1.17814 1.23238 2.79822 0.699997 4.89609C-0.233332 8.57392 -0.233332 12.4266 0.699997 16.1044C1.20855 18.1084 2.7525 19.6764 4.7308 20.2243L5.27462 23.4729C5.30984 23.6833 5.45673 23.8578 5.65799 23.9285C5.85925 23.9991 6.083 23.9546 6.24196 23.8124L9.43787 20.9529C11.8306 21.099 14.2387 20.9091 16.5913 20.3832L16.9881 20.2945C19.1003 19.8224 20.7674 18.2023 21.2998 16.1044C22.2331 12.4266 22.2331 8.57391 21.2998 4.89609C20.7674 2.79822 19.1003 1.17814 16.9881 0.705995L16.5913 0.617303ZM6.39565 4.80056C6.17826 4.76879 5.95654 4.81243 5.76739 4.92421H5.75126C5.31214 5.18162 4.91657 5.50695 4.57923 5.88811C4.29889 6.21223 4.14682 6.54018 4.10688 6.85585C4.08307 7.04402 4.0992 7.23219 4.15527 7.41191L4.17524 7.4242C4.4909 8.352 4.90334 9.24446 5.40718 10.0847C6.0562 11.2652 6.85491 12.3569 7.78351 13.3328L7.81116 13.3727L7.85494 13.405L7.88259 13.4372L7.91485 13.4649C8.89428 14.3962 9.98863 15.1986 11.1714 15.8527C12.5231 16.5885 13.3434 16.9364 13.8357 17.0808V17.0885C13.9801 17.1323 14.1114 17.1522 14.2435 17.1522C14.6631 17.1215 15.0603 16.9512 15.3718 16.6684C15.7512 16.331 16.0729 15.9338 16.3242 15.4925V15.4848C16.56 15.0409 16.4801 14.6208 16.1398 14.3366C15.4584 13.741 14.7216 13.2119 13.9394 12.7567C13.4156 12.4726 12.8833 12.6446 12.6675 12.9326L12.2074 13.5125C11.9717 13.8005 11.5431 13.7606 11.5431 13.7606L11.5308 13.7682C8.33496 12.9518 7.48244 9.71604 7.48244 9.71604C7.48244 9.71604 7.4425 9.27595 7.73819 9.05169L8.31423 8.58779C8.58996 8.36352 8.78197 7.83203 8.48627 7.30746C8.0342 6.52417 7.50633 5.78715 6.91024 5.10701C6.77993 4.94666 6.59711 4.83757 6.39412 4.79902L6.39565 4.80056ZM11.7963 3.39402C11.4731 3.39402 11.2111 3.65601 11.2111 3.97919C11.2111 4.30238 11.4731 4.56437 11.7963 4.56437C13.2762 4.56437 14.5059 5.0481 15.4773 5.97436C15.9774 6.48158 16.3667 7.08197 16.6223 7.739C16.8788 8.39849 16.9955 9.10172 16.9655 9.8061C16.9518 10.129 17.2024 10.4019 17.5253 10.4156C17.8482 10.4293 18.1211 10.1787 18.1348 9.85582C18.1717 8.98925 18.0281 8.12464 17.713 7.3147C17.3979 6.50479 16.9184 5.76676 16.3039 5.14542L16.2921 5.13417C15.0867 3.98135 13.5587 3.39402 11.7963 3.39402ZM11.7564 5.31846C11.4333 5.31846 11.1713 5.58045 11.1713 5.90364C11.1713 6.22682 11.4333 6.48881 11.7564 6.48881H11.7756C12.8434 6.56407 13.6205 6.92002 14.1652 7.5043C14.7229 8.10606 15.0118 8.85348 14.9904 9.77825C14.9829 10.1014 15.2388 10.3693 15.5619 10.3768C15.885 10.3843 16.153 10.1284 16.1604 9.80534C16.1885 8.59111 15.7981 7.54407 15.023 6.70805L15.022 6.70695C14.23 5.85717 13.1437 5.40763 11.8348 5.31977L11.8153 5.31846H11.7564ZM11.7343 7.27804C11.4116 7.26106 11.1362 7.50891 11.1192 7.83165C11.1022 8.15439 11.35 8.42979 11.6728 8.44678C12.1628 8.47257 12.4751 8.61953 12.6715 8.81784C12.8687 9.01699 13.0163 9.33588 13.0431 9.8359C13.0605 10.1586 13.3362 10.4062 13.6589 10.3888C13.9816 10.3714 14.2292 10.0958 14.2118 9.77305C14.174 9.0708 13.9543 8.44996 13.503 7.99431C13.051 7.5378 12.4336 7.31486 11.7343 7.27804Z" fill="#E6D8BA"/>
</svg>
