<svg width="25" height="18" viewBox="0 0 25 18" fill="none" xmlns="http://www.w3.org/2000/svg">
    <path fill-rule="evenodd" clip-rule="evenodd"
        d="M6.28719 0.241133C10.3967 -0.0803776 14.5251 -0.0803775 18.6346 0.241133L21.3951 0.457104C22.9328 0.5774 24.1906 1.7298 24.4448 3.25103C25.0808 7.05728 25.0808 10.9427 24.4448 14.7489C24.1906 16.2701 22.9328 17.4225 21.3951 17.5428L18.6346 17.7588C14.5251 18.0803 10.3967 18.0803 6.28719 17.7588L3.52666 17.5428C1.98904 17.4225 0.731147 16.2701 0.476973 14.7489C-0.158991 10.9427 -0.158991 7.05728 0.476973 3.25103C0.731147 1.7298 1.98904 0.5774 3.52666 0.457104L6.28719 0.241133ZM9.99687 12.0432V5.95677C9.99687 5.66948 10.3103 5.49204 10.5566 5.63984L15.6286 8.68305C15.8679 8.8266 15.8679 9.17335 15.6286 9.3169L10.5566 12.3601C10.3103 12.5079 9.99687 12.3305 9.99687 12.0432Z"
        fill="#E6D8BA" />
</svg>